<?xml version="1.0" encoding="iso-8859-1"?>
<!-- Generator: Adobe Illustrator 19.0.0, SVG Export Plug-In . SVG Version: 6.00 Build 0)  -->
<svg xmlns="http://www.w3.org/2000/svg" xmlns:xlink="http://www.w3.org/1999/xlink" version="1.1" id="Capa_1" x="0px" y="0px" viewBox="0 0 512 512" style="enable-background:new 0 0 512 512;" xml:space="preserve" width="512px" height="512px">
<g>
	<g>
		<path d="M211.376,232.589l-34.932,34.925c-13.777,13.788-16.326,34.191-8.454,50.891l64.601-64.601L211.376,232.589z" fill="#D80027"/>
	</g>
</g>
<g>
	<g>
		<path d="M253.803,275.013l-64.598,64.598c16.706,7.867,37.11,5.303,50.887-8.45l34.926-34.933L253.803,275.013z" fill="#D80027"/>
	</g>
</g>
<g>
	<g>
		<path d="M256,0C192.926,0,133.528,23.994,86.814,65.603L211.381,190.17l7.5-7.5c1.73-1.73,3.944-2.505,5.867-3.893    c-3.792-23.542,3.078-47.487,20.354-64.75l16.201-16.216c5.859-5.859,15.352-5.859,21.211,0c5.859,5.845,5.859,15.352,0,21.211    l-16.201,16.216c-9.37,9.37-13.848,22.013-12.962,34.785c5.671,0.339,11.169,1.712,16.408,4.184l12.755-12.762    c11.821-11.801,28.51-14.962,43.59-10.869c4.248-18.464,1.985-37.978-7.262-54.653c-4.014-7.236-1.392-16.377,5.859-20.391    c7.251-4.014,16.362-1.406,20.391,5.859c11.851,21.401,15.938,46.23,11.836,70.107c24.507-3.076,49.6,1.626,71.44,13.726    c7.251,4.014,9.873,13.154,5.859,20.391c-4.02,7.266-13.187,9.851-20.391,5.859c-17.338-9.606-37.355-12.567-56.68-9.326    c3.82,14.916,0.652,31.291-10.981,42.944L333.4,237.849c2.476,5.25,3.854,10.763,4.189,16.448    c12.764,0.85,25.411-3.624,34.777-12.99l16.216-16.216c5.859-5.859,15.352-5.859,21.211,0s5.859,15.352,0,21.211l-16.216,16.216    c-14.37,14.37-33.384,22.046-52.939,22.046c-4.07,0-8.167-0.363-12.253-1.04c-1.265,1.686-1.915,3.666-3.45,5.2l-7.5,7.5    l128.961,128.961C488.006,378.472,512,319.074,512,256C512,115.086,396.955,0,256,0z" fill="#D80027"/>
	</g>
</g>
<g>
	<g>
		<path d="M303.725,246.303l-42.422-42.422c-5.859-5.859-15.352-5.859-21.211,0l-7.5,7.5l63.633,63.633l7.5-7.5    C309.57,261.669,309.57,252.148,303.725,246.303z" fill="#D80027"/>
	</g>
</g>
<g>
	<g>
		<path d="M329.969,351.18c-2.159,15.624-8.956,30.72-20.942,42.706c-5.86,5.86-15.351,5.86-21.211,0    c-5.859-5.859-5.859-15.352,0-21.211c14.568-14.568,16.326-36.39,6.709-53.533l-33.223,33.23    c-2.201,2.201-4.686,3.909-7.079,5.779c1.11,29.167-9.163,57.279-30.04,78.157c-5.86,5.86-15.351,5.86-21.211,0    c-5.859-5.859-5.859-15.352,0-21.211c11.713-11.713,18.777-26.638,20.999-42.572c-26.298,5.594-51.447-2.862-68.738-20.153    c-18.635-18.644-25.263-44.722-20.132-68.774c-21.488,3.715-29.216,12.521-43.676,26.514c-5.99,5.78-15.474,5.585-21.211-0.352    c-5.757-5.947-5.596-15.454,0.352-21.211c22.916-22.175,42.699-37.095,79.206-35.552c1.783-2.254,3.382-4.612,5.462-6.694    l32.139-32.131c-16.117-6.215-35.081-2.953-48.047,10.012c-5.859,5.859-15.352,5.859-21.211,0s-5.859-15.352,0-21.211    c11.986-11.981,27.081-18.777,42.708-20.94l-95.22-95.219C23.994,133.528,0,192.926,0,256c0,140.914,115.045,256,256,256    c63.074,0,122.472-23.994,169.186-65.603L329.969,351.18z" fill="#D80027"/>
	</g>
</g>
<g>
	<g>
		<path d="M324.935,182.655c-5.845-5.845-15.366-5.83-21.211,0.015l-10.605,10.605l21.215,21.215l10.616-10.609    C330.795,198.036,330.795,188.5,324.935,182.655z" fill="#D80027"/>
	</g>
</g>
<g>
</g>
<g>
</g>
<g>
</g>
<g>
</g>
<g>
</g>
<g>
</g>
<g>
</g>
<g>
</g>
<g>
</g>
<g>
</g>
<g>
</g>
<g>
</g>
<g>
</g>
<g>
</g>
<g>
</g>
</svg>
